<?xml version="1.0" encoding="UTF-8"?>
<svg id="Layer_3" data-name="Layer 3" xmlns="http://www.w3.org/2000/svg" viewBox="0 0 42.28 41.05">
  <defs>
    <style>
      .cls-1 {
        fill: #fff;
      }

      .cls-2 {
        fill: #1d987c;
      }
    </style>
  </defs>
  <g id="Layer_1" data-name="Layer 1">
    <g>
      <path class="cls-2" d="M15.17,38.02c-2.07,0-3.99-1.27-5.01-3.3l-.08-.17c-.78-1.82-1.76-3.67-2.79-5.62-1.33-2.51-2.7-5.1-3.68-7.73-1.91-5.11,1.39-6.83,2.44-7.24.62-.24,1.26-.36,1.89-.36,2.98,0,4.53,2.62,5.04,3.48.87,1.47,1.75,3.28,2.52,4.86,0,0,.59,1.21.59,1.21.8-1.11,1.61-2.2,2.41-3.28,0,0,1.84-2.5,2.53-3.45,2.02-2.76,4.1-5.61,6.24-8.29l.31-.39c1.39-1.78,2.78-3.44,4.41-4.15.84-.37,1.75-.57,2.61-.57,1.63,0,3.05.69,3.89,1.9.5.72,1.21,2.25.39,4.45l-.15.41-.26.35c-2.5,3.35-5,6.81-7.42,10.16-2.93,4.06-5.95,8.25-9.04,12.31-.19.25-.41.56-.64.88-.76,1.06-1.62,2.27-2.51,3.06-1.08.96-2.36,1.47-3.69,1.47Z"/>
      <path class="cls-1" d="M34.6,6.06c1.16,0,2.02.73,1.45,2.27-5.55,7.42-10.83,15.07-16.44,22.45-.76,1-1.88,2.73-2.75,3.52-.54.48-1.12.7-1.68.7-.93,0-1.8-.62-2.31-1.63-1.87-4.35-4.77-8.82-6.42-13.22-.45-1.21-.86-2.75.69-3.35.29-.11.55-.16.8-.16,1.11,0,1.85,1,2.43,1.99,1.02,1.74,2.09,4.03,3,5.87.65,1.33,1.3,3.25,2.02,4.44.04.07.14.21.21.21,0,0,.02,0,.02,0,1.82-2.76,3.81-5.43,5.78-8.09,2.7-3.65,5.42-7.48,8.23-11.02.84-1.06,2.36-3.13,3.56-3.66.47-.21.95-.31,1.4-.31M34.6,0h0c-1.28,0-2.6.28-3.83.82-2.27,1-3.94,2.96-5.58,5.07l-.29.37c-2.17,2.73-4.27,5.6-6.3,8.38-.67.92-1.34,1.83-2,2.73-.33-.63-.66-1.24-1-1.81-1.95-3.3-4.52-4.97-7.65-4.97-1,0-2,.19-2.97.56-2.71,1.04-6.65,4.56-4.2,11.13,1.05,2.81,2.47,5.49,3.84,8.08,1.01,1.9,1.96,3.7,2.69,5.41l.07.17.08.16c1.54,3.07,4.5,4.97,7.72,4.97,2.07,0,4.1-.8,5.72-2.25,1.14-1.02,2.1-2.37,2.95-3.56.21-.3.41-.58.59-.81,3.11-4.09,6.15-8.31,9.09-12.38,2.41-3.33,4.89-6.78,7.38-10.1l.52-.7.3-.82c.95-2.55.67-5.19-.75-7.23-1.41-2.03-3.74-3.2-6.38-3.2h0Z"/>
    </g>
  </g>
</svg>