<?xml version="1.0" encoding="UTF-8"?>
<svg id="Layer_2" data-name="Layer 2" xmlns="http://www.w3.org/2000/svg" viewBox="0 0 51.35 56.54">
  <defs>
    <style>
      .cls-1 {
        fill: #fff;
      }

      .cls-2 {
        fill: #fdd400;
      }
    </style>
  </defs>
  <g id="Layer_1" data-name="Layer 1">
    <g>
      <path class="cls-1" d="M51.15,9.21c-.97-5.55-6.09-6.84-7.77-7.27-3.26-.83-6.53-1.06-9.7-1.29-2.01-.15-3.91-.28-5.63-.56l-.19-.03-.19-.02c-.28-.03-.56-.04-.84-.04-3.82,0-7.16,2.51-8.13,6.09-.8,2.97-1.09,6.06-1.36,9.04-.19,2.03-.36,3.95-.69,5.6-.37,1.92-1,2.39-4.37,4.15-1.91,1-4.29,2.25-6.53,4.25C2.19,32.31.1,36.71,0,41.2c-.08,4.03,1.49,7.82,4.42,10.67,3.11,3.01,7.56,4.67,12.52,4.67.51,0,1.03-.02,1.55-.06,5.92-.43,19.1-5.53,23.96-9.97,5.69-5.2,5.79-11.75,5.87-16.53.02-1.31.04-2.55.15-3.72.34-3.6,1.08-7.18,1.87-10.97.27-1.29.54-2.58.79-3.88l.22-1.1-.19-1.11Z"/>
      <path class="cls-2" d="M41.89,7.82c-4.69-1.19-10.01-.97-14.8-1.74-.09-.01-.17-.02-.26-.02-1.02,0-2.01.59-2.28,1.62-1.18,4.36-1.08,9.73-1.95,14.22-1.46,7.49-7.9,7.38-12.81,11.76-4.05,3.61-5.34,9.8-1.15,13.86,2.17,2.1,5.31,2.97,8.31,2.97.37,0,.74-.02,1.11-.04,4.95-.36,16.63-5.04,20.3-8.4,4.93-4.51,3.51-10.41,4.08-16.35.49-5.23,1.74-10.3,2.74-15.44-.29-1.68-1.86-2.08-3.29-2.44ZM39.3,33.97c-.08.94-.5,2.35-.91,3.22-1.15,2.43-3.52,4.04-5.91,5.11-1.42-4.71,2.34-9.42,6.82-10.53-.04.72.07,1.49,0,2.2ZM39.42,28.88c-6.18,1.15-10.65,6.28-10.01,12.73.03.36.46,2.07.36,2.19-4.06,1.35-8.35,3.88-12.76,3.88-.7,0-1.41-.06-2.12-.21-5.25-1.06-7.9-5.85-4.28-10.37,3.58-4.48,10.33-4.96,13.22-10.09,1.74-3.09,1.62-6.58,2.31-9.97l14.42,1.7c-.64,3.34-.96,6.74-1.14,10.14ZM42.05,11.39c-.08,1.34-.81,3.08-1.01,4.45-2.3-.19-4.63-.33-6.93-.61-2.54-.32-5.04-.91-7.59-1.13l.75-5.26c3.6.67,7.36.72,10.96,1.27.58.09,3.32.53,3.63.74.24.17.21.28.19.54Z"/>
    </g>
  </g>
</svg>